<?xml version="1.0" encoding="UTF-8" standalone="no"?>
<!-- Created with Inkscape (http://www.inkscape.org/) -->

<svg
   width="210mm"
   height="297mm"
   viewBox="0 0 210 297"
   version="1.1"
   id="svg1"
   xml:space="preserve"
   inkscape:version="1.3.2 (091e20e, 2023-11-25, custom)"
   sodipodi:docname="check.svg"
   xmlns:inkscape="http://www.inkscape.org/namespaces/inkscape"
   xmlns:sodipodi="http://sodipodi.sourceforge.net/DTD/sodipodi-0.dtd"
   xmlns="http://www.w3.org/2000/svg"
   xmlns:svg="http://www.w3.org/2000/svg"><sodipodi:namedview
     id="namedview1"
     pagecolor="#ffffff"
     bordercolor="#000000"
     borderopacity="0.25"
     inkscape:showpageshadow="2"
     inkscape:pageopacity="0.0"
     inkscape:pagecheckerboard="0"
     inkscape:deskcolor="#d1d1d1"
     inkscape:document-units="mm"
     showgrid="false"
     inkscape:zoom="0.73139029"
     inkscape:cx="396.50513"
     inkscape:cy="561.25984"
     inkscape:window-width="2560"
     inkscape:window-height="1017"
     inkscape:window-x="-8"
     inkscape:window-y="-8"
     inkscape:window-maximized="1"
     inkscape:current-layer="layer1" /><defs
     id="defs1" /><g
     inkscape:label="Capa 1"
     inkscape:groupmode="layer"
     id="layer1"><g
       style="fill:#000000"
       id="g2"
       transform="matrix(0.41341146,0,0,0.41341146,-0.92468577,42.666666)"><g
         id="SVGRepo_bgCarrier"
         stroke-width="0" /><g
         id="SVGRepo_tracerCarrier"
         stroke-linecap="round"
         stroke-linejoin="round" /><g
         id="SVGRepo_iconCarrier"> <style
   type="text/css"
   id="style1"> .st0{fill:#e8e8e8;} </style> <g
   id="g1"> <path
   class="st0"
   d="M 469.402,35.492 C 334.09,110.664 197.114,324.5 197.114,324.5 L 73.509,184.176 0,254.336 l 178.732,222.172 65.15,-2.504 C 327.414,223.414 512,55.539 512,55.539 Z"
   id="path1" /> </g> </g></g><path
       style="fill:#000000;stroke-width:1.36726"
       d="M 178.67721,784.13388 C 125.1483,717.5885 62.460625,639.65767 39.371273,610.95428 l -41.9806415,-52.188 56.7403635,-54.24342 c 41.446109,-39.62223 57.184415,-53.86896 58.387745,-52.85415 0.90607,0.76411 44.10078,49.68946 95.98827,108.72302 51.88748,59.03356 94.95614,107.36899 95.70813,107.41208 0.75199,0.0431 3.82833,-3.7576 6.8363,-8.44595 8.82606,-13.75666 45.32578,-65.52321 62.90106,-89.21083 63.99284,-86.24833 119.42665,-151.25019 183.07028,-214.66881 48.63909,-48.46712 80.91206,-76.40045 121.98513,-105.58217 18.80243,-13.35881 48.14731,-31.74491 50.73701,-31.78939 1.38826,-0.0238 62.69241,28.09075 64.52493,29.59167 0.31678,0.25946 -11.39095,12.62044 -26.01719,27.46884 -137.95191,140.04723 -260.38825,318.40218 -339.75318,494.92384 -16.56016,36.83274 -37.59163,89.95352 -47.57513,120.16416 l -3.67066,11.10759 -27.6321,1.03816 c -15.19764,0.57098 -37.97916,1.4176 -50.62558,1.88136 l -22.99349,0.84322 z"
       id="path2"
       transform="scale(0.26458333)" /></g></svg>
